<?xml version="1.0" encoding="UTF-8"?><svg xmlns="http://www.w3.org/2000/svg" xmlns:xlink="http://www.w3.org/1999/xlink" fill-opacity="1" color-rendering="auto" color-interpolation="auto" text-rendering="auto" stroke="black" stroke-linecap="square" width="1097" stroke-miterlimit="10" shape-rendering="auto" stroke-opacity="1" fill="black" stroke-dasharray="none" font-weight="normal" stroke-width="1" height="898" font-family="'Dialog'" font-style="normal" stroke-linejoin="miter" font-size="12px" stroke-dashoffset="0" image-rendering="auto">
  <!--Generated by ySVG 2.5-->
  <defs id="genericDefs"/>
  <g>
    <defs id="defs1">
      <clipPath clipPathUnits="userSpaceOnUse" id="clipPath1">
        <path d="M0 0 L1097 0 L1097 898 L0 898 L0 0 Z"/>
      </clipPath>
      <clipPath clipPathUnits="userSpaceOnUse" id="clipPath2">
        <path d="M140 23 L1237 23 L1237 921 L140 921 L140 23 Z"/>
      </clipPath>
    </defs>
    <g fill="white" text-rendering="geometricPrecision" shape-rendering="geometricPrecision" transform="translate(-140,-23)" stroke="white">
      <rect x="140" width="1097" height="898" y="23" clip-path="url(#clipPath2)" stroke="none"/>
    </g>
    <g fill="rgb(255,204,0)" text-rendering="geometricPrecision" shape-rendering="geometricPrecision" transform="matrix(1,0,0,1,-140,-23)" stroke="rgb(255,204,0)">
      <rect x="163" width="374" height="43" y="104" clip-path="url(#clipPath2)" stroke="none"/>
    </g>
    <g text-rendering="geometricPrecision" stroke-miterlimit="1.45" shape-rendering="geometricPrecision" transform="matrix(1,0,0,1,-140,-23)" stroke-linecap="butt">
      <rect fill="none" x="163" width="374" height="43" y="104" clip-path="url(#clipPath2)"/>
      <text x="207.2598" xml:space="preserve" y="130.2139" clip-path="url(#clipPath2)" font-family="sans-serif" stroke="none">git clone https://github.com/PixelMaster98/GridEngine</text>
    </g>
    <g fill="rgb(255,204,0)" text-rendering="geometricPrecision" shape-rendering="geometricPrecision" transform="matrix(1,0,0,1,-140,-23)" stroke="rgb(255,204,0)">
      <circle r="92.5" clip-path="url(#clipPath2)" cx="350" cy="444.5" stroke="none"/>
    </g>
    <g text-rendering="geometricPrecision" stroke-miterlimit="1.45" shape-rendering="geometricPrecision" transform="matrix(1,0,0,1,-140,-23)" stroke-linecap="butt">
      <circle fill="none" r="92.5" clip-path="url(#clipPath2)" cx="350" cy="444.5"/>
      <text x="286.6338" xml:space="preserve" y="449.2139" clip-path="url(#clipPath2)" font-family="sans-serif" stroke="none">Local copy of repository</text>
    </g>
    <g fill="rgb(255,204,0)" text-rendering="geometricPrecision" shape-rendering="geometricPrecision" transform="matrix(1,0,0,1,-140,-23)" stroke="rgb(255,204,0)">
      <rect x="155" width="167" height="78" y="657" clip-path="url(#clipPath2)" stroke="none"/>
    </g>
    <g text-rendering="geometricPrecision" stroke-miterlimit="1.45" shape-rendering="geometricPrecision" transform="matrix(1,0,0,1,-140,-23)" stroke-linecap="butt">
      <rect fill="none" x="155" width="167" height="78" y="657" clip-path="url(#clipPath2)"/>
      <text x="180.1406" xml:space="preserve" y="693.3633" clip-path="url(#clipPath2)" font-family="sans-serif" stroke="none">edit, create or remove</text>
      <text x="216.8232" xml:space="preserve" y="708.0645" clip-path="url(#clipPath2)" font-family="sans-serif" stroke="none">local file</text>
    </g>
    <g fill="rgb(255,204,0)" text-rendering="geometricPrecision" shape-rendering="geometricPrecision" transform="matrix(1,0,0,1,-140,-23)" stroke="rgb(255,204,0)">
      <rect x="408" width="218" height="78" y="749" clip-path="url(#clipPath2)" stroke="none"/>
    </g>
    <g text-rendering="geometricPrecision" stroke-miterlimit="1.45" shape-rendering="geometricPrecision" transform="matrix(1,0,0,1,-140,-23)" stroke-linecap="butt">
      <rect fill="none" x="408" width="218" height="78" y="749" clip-path="url(#clipPath2)"/>
      <text x="480.9736" xml:space="preserve" y="770.6621" clip-path="url(#clipPath2)" font-family="sans-serif" stroke="none">git add &lt;file&gt;:</text>
      <text x="426.2822" xml:space="preserve" y="785.3633" clip-path="url(#clipPath2)" font-family="sans-serif" stroke="none">tell git to include the specified files</text>
      <text x="439.6387" xml:space="preserve" y="800.0645" clip-path="url(#clipPath2)" font-family="sans-serif" stroke="none">in the next commit; allows for</text>
      <text x="474.6396" xml:space="preserve" y="814.7656" clip-path="url(#clipPath2)" font-family="sans-serif" stroke="none">grouping of files</text>
    </g>
    <g fill="rgb(255,204,0)" text-rendering="geometricPrecision" shape-rendering="geometricPrecision" transform="matrix(1,0,0,1,-140,-23)" stroke="rgb(255,204,0)">
      <rect x="658" width="201" height="84" y="568" clip-path="url(#clipPath2)" stroke="none"/>
    </g>
    <g text-rendering="geometricPrecision" stroke-miterlimit="1.45" shape-rendering="geometricPrecision" transform="matrix(1,0,0,1,-140,-23)" stroke-linecap="butt">
      <rect fill="none" x="658" width="201" height="84" y="568" clip-path="url(#clipPath2)"/>
      <text x="729.4961" xml:space="preserve" y="585.3115" clip-path="url(#clipPath2)" font-family="sans-serif" stroke="none">git commit:</text>
      <text x="682.1172" xml:space="preserve" y="600.0127" clip-path="url(#clipPath2)" font-family="sans-serif" stroke="none">Saves the specified changes</text>
      <text x="699.8037" xml:space="preserve" y="614.7139" clip-path="url(#clipPath2)" font-family="sans-serif" stroke="none">to the local repository.</text>
      <text x="664.1113" xml:space="preserve" y="629.415" clip-path="url(#clipPath2)" font-family="sans-serif" stroke="none">Opens a text editor for entering the </text>
      <text x="713.1543" xml:space="preserve" y="644.1162" clip-path="url(#clipPath2)" font-family="sans-serif" stroke="none">commit message</text>
    </g>
    <g fill="rgb(255,204,0)" text-rendering="geometricPrecision" shape-rendering="geometricPrecision" transform="matrix(1,0,0,1,-140,-23)" stroke="rgb(255,204,0)">
      <circle r="87.5" clip-path="url(#clipPath2)" cx="821.5" cy="125.5" stroke="none"/>
    </g>
    <g text-rendering="geometricPrecision" stroke-miterlimit="1.45" shape-rendering="geometricPrecision" transform="matrix(1,0,0,1,-140,-23)" stroke-linecap="butt">
      <circle fill="none" r="87.5" clip-path="url(#clipPath2)" cx="821.5" cy="125.5"/>
      <text x="777.8125" xml:space="preserve" y="130.2139" clip-path="url(#clipPath2)" font-family="sans-serif" stroke="none">public repository</text>
    </g>
    <g fill="rgb(255,204,0)" text-rendering="geometricPrecision" shape-rendering="geometricPrecision" transform="matrix(1,0,0,1,-140,-23)" stroke="rgb(255,204,0)">
      <rect x="520" width="172" height="94" y="253" clip-path="url(#clipPath2)" stroke="none"/>
    </g>
    <g text-rendering="geometricPrecision" stroke-miterlimit="1.45" shape-rendering="geometricPrecision" transform="matrix(1,0,0,1,-140,-23)" stroke-linecap="butt">
      <rect fill="none" x="520" width="172" height="94" y="253" clip-path="url(#clipPath2)"/>
      <text x="583.3184" xml:space="preserve" y="282.6621" clip-path="url(#clipPath2)" font-family="sans-serif" stroke="none">git push:</text>
      <text x="547.9629" xml:space="preserve" y="297.3633" clip-path="url(#clipPath2)" font-family="sans-serif" stroke="none">Publish local changes</text>
      <text x="552.3223" xml:space="preserve" y="312.0645" clip-path="url(#clipPath2)" font-family="sans-serif" stroke="none">(i.e. committed files)</text>
      <text x="577.3125" xml:space="preserve" y="326.7656" clip-path="url(#clipPath2)" font-family="sans-serif" stroke="none">to the repo</text>
    </g>
    <g fill="rgb(255,204,0)" text-rendering="geometricPrecision" shape-rendering="geometricPrecision" transform="matrix(1,0,0,1,-140,-23)" stroke="rgb(255,204,0)">
      <rect x="954" width="218" height="53" y="507" clip-path="url(#clipPath2)" stroke="none"/>
    </g>
    <g text-rendering="geometricPrecision" stroke-miterlimit="1.45" shape-rendering="geometricPrecision" transform="matrix(1,0,0,1,-140,-23)" stroke-linecap="butt">
      <rect fill="none" x="954" width="218" height="53" y="507" clip-path="url(#clipPath2)"/>
      <text x="995.0605" xml:space="preserve" y="523.5127" clip-path="url(#clipPath2)" font-family="sans-serif" stroke="none">git commit -m "message":</text>
      <text x="969.9619" xml:space="preserve" y="538.2139" clip-path="url(#clipPath2)" font-family="sans-serif" stroke="none">commit with the specified message</text>
      <text x="999.6426" xml:space="preserve" y="552.915" clip-path="url(#clipPath2)" font-family="sans-serif" stroke="none">as the commit message</text>
    </g>
    <g fill="rgb(255,204,0)" text-rendering="geometricPrecision" shape-rendering="geometricPrecision" transform="matrix(1,0,0,1,-140,-23)" stroke="rgb(255,204,0)">
      <rect x="981" width="241" height="84" y="590" clip-path="url(#clipPath2)" stroke="none"/>
    </g>
    <g text-rendering="geometricPrecision" stroke-miterlimit="1.45" shape-rendering="geometricPrecision" transform="matrix(1,0,0,1,-140,-23)" stroke-linecap="butt">
      <rect fill="none" x="981" width="241" height="84" y="590" clip-path="url(#clipPath2)"/>
      <text x="1065.4941" xml:space="preserve" y="607.3115" clip-path="url(#clipPath2)" font-family="sans-serif" stroke="none">git commit -a:</text>
      <text x="1036.8037" xml:space="preserve" y="622.0127" clip-path="url(#clipPath2)" font-family="sans-serif" stroke="none">commit a snapshot of all</text>
      <text x="1015.4551" xml:space="preserve" y="636.7139" clip-path="url(#clipPath2)" font-family="sans-serif" stroke="none">changes in the working directory</text>
      <text x="1007.7793" xml:space="preserve" y="651.415" clip-path="url(#clipPath2)" font-family="sans-serif" stroke="none">(only includes files that were added</text>
      <text x="1027.2031" xml:space="preserve" y="666.1162" clip-path="url(#clipPath2)" font-family="sans-serif" stroke="none">with "git add" at some point)</text>
    </g>
    <g fill="rgb(255,204,0)" text-rendering="geometricPrecision" shape-rendering="geometricPrecision" transform="matrix(1,0,0,1,-140,-23)" stroke="rgb(255,204,0)">
      <rect x="450" width="134" height="43" y="863" clip-path="url(#clipPath2)" stroke="none"/>
    </g>
    <g text-rendering="geometricPrecision" stroke-miterlimit="1.45" shape-rendering="geometricPrecision" transform="matrix(1,0,0,1,-140,-23)" stroke-linecap="butt">
      <rect fill="none" x="450" width="134" height="43" y="863" clip-path="url(#clipPath2)"/>
      <text x="495.6514" xml:space="preserve" y="881.8633" clip-path="url(#clipPath2)" font-family="sans-serif" stroke="none">git add .</text>
      <text x="474.6396" xml:space="preserve" y="896.5645" clip-path="url(#clipPath2)" font-family="sans-serif" stroke="none">adds everything</text>
      <path fill="none" d="M350 147 L350 344" clip-path="url(#clipPath2)"/>
      <path d="M350 352 L355 340 L350 343 L345 340 Z" clip-path="url(#clipPath2)" stroke="none"/>
      <path fill="none" d="M312.5102 529.0622 L259.0326 649.6865" clip-path="url(#clipPath2)"/>
      <path d="M255.7903 657 L265.2247 648.0563 L259.4379 648.7723 L256.0829 644.0033 Z" clip-path="url(#clipPath2)" stroke="none"/>
      <path fill="none" d="M322 723.5835 L400.4037 749.4835" clip-path="url(#clipPath2)"/>
      <path d="M408 751.9928 L398.174 743.4811 L399.4542 749.1698 L395.0373 752.9764 Z" clip-path="url(#clipPath2)" stroke="none"/>
      <path fill="none" d="M569.9129 749 L695.0771 656.7465" clip-path="url(#clipPath2)"/>
      <path d="M701.5168 652 L688.8906 655.0949 L694.2721 657.3398 L694.8238 663.1447 Z" clip-path="url(#clipPath2)" stroke="none"/>
      <path fill="none" d="M658 569.2833 L443.1459 482.2372" clip-path="url(#clipPath2)"/>
      <path d="M435.7313 479.2332 L444.9757 488.3733 L444.0727 482.6127 L448.7306 479.105 Z" clip-path="url(#clipPath2)" stroke="none"/>
      <path fill="none" d="M734 125.5 L545 125.5" clip-path="url(#clipPath2)"/>
      <path d="M537 125.5 L549 130.5 L546 125.5 L549 120.5 Z" clip-path="url(#clipPath2)" stroke="none"/>
      <path fill="none" d="M430.5534 399.0314 L515.7668 350.9324" clip-path="url(#clipPath2)"/>
      <path d="M522.7336 347 L509.8257 348.5444 L514.8959 351.424 L514.7411 357.2529 Z" clip-path="url(#clipPath2)" stroke="none"/>
      <path fill="none" d="M664.043 253 L747.2811 185.5983" clip-path="url(#clipPath2)"/>
      <path d="M753.4984 180.5639 L741.026 184.2298 L746.504 186.2276 L747.319 192.0014 Z" clip-path="url(#clipPath2)" stroke="none"/>
      <path fill="none" d="M957.5196 560 L866.7589 582.8019" clip-path="url(#clipPath2)"/>
      <path d="M859 584.7512 L871.8566 586.6766 L867.7288 582.5583 L869.42 576.978 Z" clip-path="url(#clipPath2)" stroke="none"/>
      <path fill="none" d="M981 624.2711 L866.9836 616.9581" clip-path="url(#clipPath2)"/>
      <path d="M859 616.446 L870.6553 622.2039 L867.9816 617.0222 L871.2955 612.2244 Z" clip-path="url(#clipPath2)" stroke="none"/>
      <path fill="none" d="M517 863 L517 835" clip-path="url(#clipPath2)"/>
      <path d="M517 827 L512 839 L517 836 L522 839 Z" clip-path="url(#clipPath2)" stroke="none"/>
    </g>
  </g>
</svg>
