<?xml version="1.0" encoding="UTF-8"?><svg xmlns="http://www.w3.org/2000/svg" xmlns:xlink="http://www.w3.org/1999/xlink" fill-opacity="1" color-rendering="auto" color-interpolation="auto" text-rendering="auto" stroke="black" stroke-linecap="square" width="1358" stroke-miterlimit="10" shape-rendering="auto" stroke-opacity="1" fill="black" stroke-dasharray="none" font-weight="normal" stroke-width="1" height="910" font-family="'Dialog'" font-style="normal" stroke-linejoin="miter" font-size="12px" stroke-dashoffset="0" image-rendering="auto">
  <!--Generated by ySVG 2.5-->
  <defs id="genericDefs"/>
  <g>
    <defs id="defs1">
      <clipPath clipPathUnits="userSpaceOnUse" id="clipPath1">
        <path d="M0 0 L1358 0 L1358 910 L0 910 L0 0 Z"/>
      </clipPath>
      <clipPath clipPathUnits="userSpaceOnUse" id="clipPath2">
        <path d="M-121 23 L1237 23 L1237 933 L-121 933 L-121 23 Z"/>
      </clipPath>
    </defs>
    <g fill="white" text-rendering="geometricPrecision" shape-rendering="geometricPrecision" transform="translate(121,-23)" stroke="white">
      <rect x="-121" width="1358" height="910" y="23" clip-path="url(#clipPath2)" stroke="none"/>
    </g>
    <g fill="rgb(255,204,0)" text-rendering="geometricPrecision" shape-rendering="geometricPrecision" transform="matrix(1,0,0,1,121,-23)" stroke="rgb(255,204,0)">
      <rect x="163" width="374" height="43" y="104" clip-path="url(#clipPath2)" stroke="none"/>
    </g>
    <g text-rendering="geometricPrecision" stroke-miterlimit="1.45" shape-rendering="geometricPrecision" transform="matrix(1,0,0,1,121,-23)" stroke-linecap="butt">
      <rect fill="none" x="163" width="374" height="43" y="104" clip-path="url(#clipPath2)"/>
      <text x="207.2598" xml:space="preserve" y="130.2139" clip-path="url(#clipPath2)" font-family="sans-serif" stroke="none">git clone https://github.com/PixelMaster98/GridEngine</text>
    </g>
    <g fill="rgb(255,204,0)" text-rendering="geometricPrecision" shape-rendering="geometricPrecision" transform="matrix(1,0,0,1,121,-23)" stroke="rgb(255,204,0)">
      <circle r="92.5" clip-path="url(#clipPath2)" cx="350" cy="444.5" stroke="none"/>
    </g>
    <g text-rendering="geometricPrecision" stroke-miterlimit="1.45" shape-rendering="geometricPrecision" transform="matrix(1,0,0,1,121,-23)" stroke-linecap="butt">
      <circle fill="none" r="92.5" clip-path="url(#clipPath2)" cx="350" cy="444.5"/>
      <text x="286.6338" xml:space="preserve" y="449.2139" clip-path="url(#clipPath2)" font-family="sans-serif" stroke="none">Local copy of repository</text>
    </g>
    <g fill="rgb(255,204,0)" text-rendering="geometricPrecision" shape-rendering="geometricPrecision" transform="matrix(1,0,0,1,121,-23)" stroke="rgb(255,204,0)">
      <rect x="155" width="167" height="78" y="657" clip-path="url(#clipPath2)" stroke="none"/>
    </g>
    <g text-rendering="geometricPrecision" stroke-miterlimit="1.45" shape-rendering="geometricPrecision" transform="matrix(1,0,0,1,121,-23)" stroke-linecap="butt">
      <rect fill="none" x="155" width="167" height="78" y="657" clip-path="url(#clipPath2)"/>
      <text x="180.1406" xml:space="preserve" y="693.3633" clip-path="url(#clipPath2)" font-family="sans-serif" stroke="none">edit, create or remove</text>
      <text x="209.8271" xml:space="preserve" y="708.0645" clip-path="url(#clipPath2)" font-family="sans-serif" stroke="none">local file(s)</text>
    </g>
    <g fill="rgb(255,204,0)" text-rendering="geometricPrecision" shape-rendering="geometricPrecision" transform="matrix(1,0,0,1,121,-23)" stroke="rgb(255,204,0)">
      <rect x="408" width="218" height="94" y="733" clip-path="url(#clipPath2)" stroke="none"/>
    </g>
    <g text-rendering="geometricPrecision" stroke-miterlimit="1.45" shape-rendering="geometricPrecision" transform="matrix(1,0,0,1,121,-23)" stroke-linecap="butt">
      <rect fill="none" x="408" width="218" height="94" y="733" clip-path="url(#clipPath2)"/>
      <text x="482.6406" xml:space="preserve" y="755.3115" clip-path="url(#clipPath2)" font-family="sans-serif" stroke="none">git add &lt;file&gt;</text>
      <text x="426.2822" xml:space="preserve" y="770.0127" clip-path="url(#clipPath2)" font-family="sans-serif" stroke="none">tell git to include the specified files</text>
      <text x="422.7021" xml:space="preserve" y="784.7139" clip-path="url(#clipPath2)" font-family="sans-serif" stroke="none">in the next commit ("stage" the file);</text>
      <text x="422.2891" xml:space="preserve" y="799.415" clip-path="url(#clipPath2)" font-family="sans-serif" stroke="none">allows better control (grouping files)</text>
      <text x="470.3154" xml:space="preserve" y="814.1162" clip-path="url(#clipPath2)" font-family="sans-serif" stroke="none"> when committing</text>
    </g>
    <g fill="rgb(255,204,0)" text-rendering="geometricPrecision" shape-rendering="geometricPrecision" transform="matrix(1,0,0,1,121,-23)" stroke="rgb(255,204,0)">
      <rect x="658" width="201" height="84" y="568" clip-path="url(#clipPath2)" stroke="none"/>
    </g>
    <g text-rendering="geometricPrecision" stroke-miterlimit="1.45" shape-rendering="geometricPrecision" transform="matrix(1,0,0,1,121,-23)" stroke-linecap="butt">
      <rect fill="none" x="658" width="201" height="84" y="568" clip-path="url(#clipPath2)"/>
      <text x="731.1631" xml:space="preserve" y="585.3115" clip-path="url(#clipPath2)" font-family="sans-serif" stroke="none">git commit</text>
      <text x="682.1172" xml:space="preserve" y="600.0127" clip-path="url(#clipPath2)" font-family="sans-serif" stroke="none">Saves the specified changes</text>
      <text x="699.8037" xml:space="preserve" y="614.7139" clip-path="url(#clipPath2)" font-family="sans-serif" stroke="none">to the local repository.</text>
      <text x="664.1113" xml:space="preserve" y="629.415" clip-path="url(#clipPath2)" font-family="sans-serif" stroke="none">Opens a text editor for entering the </text>
      <text x="713.1543" xml:space="preserve" y="644.1162" clip-path="url(#clipPath2)" font-family="sans-serif" stroke="none">commit message</text>
    </g>
    <g fill="rgb(255,204,0)" text-rendering="geometricPrecision" shape-rendering="geometricPrecision" transform="matrix(1,0,0,1,121,-23)" stroke="rgb(255,204,0)">
      <circle r="87.5" clip-path="url(#clipPath2)" cx="821.5" cy="125.5" stroke="none"/>
    </g>
    <g text-rendering="geometricPrecision" stroke-miterlimit="1.45" shape-rendering="geometricPrecision" transform="matrix(1,0,0,1,121,-23)" stroke-linecap="butt">
      <circle fill="none" r="87.5" clip-path="url(#clipPath2)" cx="821.5" cy="125.5"/>
      <text x="777.8125" xml:space="preserve" y="130.2139" clip-path="url(#clipPath2)" font-family="sans-serif" stroke="none">public repository</text>
    </g>
    <g fill="rgb(255,204,0)" text-rendering="geometricPrecision" shape-rendering="geometricPrecision" transform="matrix(1,0,0,1,121,-23)" stroke="rgb(255,204,0)">
      <rect x="449" width="172" height="94" y="202.5" clip-path="url(#clipPath2)" stroke="none"/>
    </g>
    <g text-rendering="geometricPrecision" stroke-miterlimit="1.45" shape-rendering="geometricPrecision" transform="matrix(1,0,0,1,121,-23)" stroke-linecap="butt">
      <rect fill="none" x="449" width="172" height="94" y="202.5" clip-path="url(#clipPath2)"/>
      <text x="513.9854" xml:space="preserve" y="232.1621" clip-path="url(#clipPath2)" font-family="sans-serif" stroke="none">git push</text>
      <text x="476.9629" xml:space="preserve" y="246.8633" clip-path="url(#clipPath2)" font-family="sans-serif" stroke="none">Publish local changes</text>
      <text x="481.3223" xml:space="preserve" y="261.5645" clip-path="url(#clipPath2)" font-family="sans-serif" stroke="none">(i.e. committed files)</text>
      <text x="506.3125" xml:space="preserve" y="276.2656" clip-path="url(#clipPath2)" font-family="sans-serif" stroke="none">to the repo</text>
    </g>
    <g fill="rgb(255,204,0)" text-rendering="geometricPrecision" shape-rendering="geometricPrecision" transform="matrix(1,0,0,1,121,-23)" stroke="rgb(255,204,0)">
      <rect x="954" width="218" height="53" y="507" clip-path="url(#clipPath2)" stroke="none"/>
    </g>
    <g text-rendering="geometricPrecision" stroke-miterlimit="1.45" shape-rendering="geometricPrecision" transform="matrix(1,0,0,1,121,-23)" stroke-linecap="butt">
      <rect fill="none" x="954" width="218" height="53" y="507" clip-path="url(#clipPath2)"/>
      <text x="996.7275" xml:space="preserve" y="523.5127" clip-path="url(#clipPath2)" font-family="sans-serif" stroke="none">git commit -m "message"</text>
      <text x="969.9619" xml:space="preserve" y="538.2139" clip-path="url(#clipPath2)" font-family="sans-serif" stroke="none">commit with the specified message</text>
      <text x="999.6426" xml:space="preserve" y="552.915" clip-path="url(#clipPath2)" font-family="sans-serif" stroke="none">as the commit message</text>
    </g>
    <g fill="rgb(255,204,0)" text-rendering="geometricPrecision" shape-rendering="geometricPrecision" transform="matrix(1,0,0,1,121,-23)" stroke="rgb(255,204,0)">
      <rect x="981" width="241" height="84" y="590" clip-path="url(#clipPath2)" stroke="none"/>
    </g>
    <g text-rendering="geometricPrecision" stroke-miterlimit="1.45" shape-rendering="geometricPrecision" transform="matrix(1,0,0,1,121,-23)" stroke-linecap="butt">
      <rect fill="none" x="981" width="241" height="84" y="590" clip-path="url(#clipPath2)"/>
      <text x="1067.1611" xml:space="preserve" y="614.6621" clip-path="url(#clipPath2)" font-family="sans-serif" stroke="none">git commit -a</text>
      <text x="1066.1416" xml:space="preserve" y="629.3633" clip-path="url(#clipPath2)" font-family="sans-serif" stroke="none">equals using:</text>
      <text x="1080.1514" xml:space="preserve" y="644.0645" clip-path="url(#clipPath2)" font-family="sans-serif" stroke="none">git add .</text>
      <text x="1074.1631" xml:space="preserve" y="658.7656" clip-path="url(#clipPath2)" font-family="sans-serif" stroke="none">git commit</text>
    </g>
    <g fill="rgb(255,204,0)" text-rendering="geometricPrecision" shape-rendering="geometricPrecision" transform="matrix(1,0,0,1,121,-23)" stroke="rgb(255,204,0)">
      <rect x="450" width="134" height="43" y="863" clip-path="url(#clipPath2)" stroke="none"/>
    </g>
    <g text-rendering="geometricPrecision" stroke-miterlimit="1.45" shape-rendering="geometricPrecision" transform="matrix(1,0,0,1,121,-23)" stroke-linecap="butt">
      <rect fill="none" x="450" width="134" height="43" y="863" clip-path="url(#clipPath2)"/>
      <text x="495.6514" xml:space="preserve" y="881.8633" clip-path="url(#clipPath2)" font-family="sans-serif" stroke="none">git add .</text>
      <text x="474.6396" xml:space="preserve" y="896.5645" clip-path="url(#clipPath2)" font-family="sans-serif" stroke="none">adds everything</text>
    </g>
    <g fill="rgb(255,204,0)" text-rendering="geometricPrecision" shape-rendering="geometricPrecision" transform="matrix(1,0,0,1,121,-23)" stroke="rgb(255,204,0)">
      <rect x="660.5" width="196" height="66" y="851.5" clip-path="url(#clipPath2)" stroke="none"/>
    </g>
    <g text-rendering="geometricPrecision" stroke-miterlimit="1.45" shape-rendering="geometricPrecision" transform="matrix(1,0,0,1,121,-23)" stroke-linecap="butt">
      <rect fill="none" x="660.5" width="196" height="66" y="851.5" clip-path="url(#clipPath2)"/>
      <text x="734.4883" xml:space="preserve" y="874.5127" clip-path="url(#clipPath2)" font-family="sans-serif" stroke="none">git status</text>
      <text x="682.1289" xml:space="preserve" y="889.2139" clip-path="url(#clipPath2)" font-family="sans-serif" stroke="none">shows which files are staged</text>
      <text x="707.4824" xml:space="preserve" y="903.915" clip-path="url(#clipPath2)" font-family="sans-serif" stroke="none">for the next commit</text>
    </g>
    <g fill="rgb(255,204,0)" text-rendering="geometricPrecision" shape-rendering="geometricPrecision" transform="matrix(1,0,0,1,121,-23)" stroke="rgb(255,204,0)">
      <rect x="222.5" width="151" height="53" y="857" clip-path="url(#clipPath2)" stroke="none"/>
    </g>
    <g text-rendering="geometricPrecision" stroke-miterlimit="1.45" shape-rendering="geometricPrecision" transform="matrix(1,0,0,1,121,-23)" stroke-linecap="butt">
      <rect fill="none" x="222.5" width="151" height="53" y="857" clip-path="url(#clipPath2)"/>
      <text x="283" xml:space="preserve" y="873.5127" clip-path="url(#clipPath2)" font-family="sans-serif" stroke="none">git rm</text>
      <text x="246.3789" xml:space="preserve" y="888.2139" clip-path="url(#clipPath2)" font-family="sans-serif" stroke="none">tell git to "un-stage"</text>
      <text x="247.9785" xml:space="preserve" y="902.915" clip-path="url(#clipPath2)" font-family="sans-serif" stroke="none">the specified file(s)</text>
    </g>
    <g fill="rgb(255,204,0)" text-rendering="geometricPrecision" shape-rendering="geometricPrecision" transform="matrix(1,0,0,1,121,-23)" stroke="rgb(255,204,0)">
      <rect x="28.5" width="185" height="66" y="437" clip-path="url(#clipPath2)" stroke="none"/>
    </g>
    <g text-rendering="geometricPrecision" stroke-miterlimit="1.45" shape-rendering="geometricPrecision" transform="matrix(1,0,0,1,121,-23)" stroke-linecap="butt">
      <rect fill="none" x="28.5" width="185" height="66" y="437" clip-path="url(#clipPath2)"/>
      <text x="104.9893" xml:space="preserve" y="460.0127" clip-path="url(#clipPath2)" font-family="sans-serif" stroke="none">git log</text>
      <text x="48.9766" xml:space="preserve" y="474.7139" clip-path="url(#clipPath2)" font-family="sans-serif" stroke="none">displays the commit history</text>
      <text x="86.3125" xml:space="preserve" y="489.415" clip-path="url(#clipPath2)" font-family="sans-serif" stroke="none">of the project</text>
    </g>
    <g fill="rgb(255,204,0)" text-rendering="geometricPrecision" shape-rendering="geometricPrecision" transform="matrix(1,0,0,1,121,-23)" stroke="rgb(255,204,0)">
      <rect x="574.225" width="368.55" height="123.5" y="328.75" clip-path="url(#clipPath2)" stroke="none"/>
    </g>
    <g text-rendering="geometricPrecision" stroke-miterlimit="1.45" shape-rendering="geometricPrecision" transform="matrix(1,0,0,1,121,-23)" stroke-linecap="butt">
      <rect fill="none" x="574.225" width="368.55" height="123.5" y="328.75" clip-path="url(#clipPath2)"/>
      <text x="682.1289" xml:space="preserve" y="351.1104" clip-path="url(#clipPath2)" font-family="sans-serif" stroke="none">git checkout &lt;commit&gt; &lt;file&gt;</text>
      <text x="639.1035" xml:space="preserve" y="365.8115" clip-path="url(#clipPath2)" font-family="sans-serif" stroke="none">sets your working directory to be equal to the</text>
      <text x="676.1318" xml:space="preserve" y="380.5127" clip-path="url(#clipPath2)" font-family="sans-serif" stroke="none">project at the time of &lt;commit&gt;</text>
      <text x="640.0879" xml:space="preserve" y="395.2139" clip-path="url(#clipPath2)" font-family="sans-serif" stroke="none">Adding &lt;file&gt; only changes that specified file</text>
      <text x="712.8145" xml:space="preserve" y="409.915" clip-path="url(#clipPath2)" font-family="sans-serif" stroke="none">to its earlier state</text>
      <text x="603.4932" xml:space="preserve" y="424.6162" clip-path="url(#clipPath2)" font-family="sans-serif" stroke="none">For &lt;commit&gt; use the hash displayed by "git log --oneline"</text>
      <text x="655.5244" xml:space="preserve" y="439.3174" clip-path="url(#clipPath2)" font-family="sans-serif" stroke="none">or use "HEAD" to get the latest version</text>
    </g>
    <g fill="rgb(255,204,0)" text-rendering="geometricPrecision" shape-rendering="geometricPrecision" transform="matrix(1,0,0,1,121,-23)" stroke="rgb(255,204,0)">
      <rect x="-105.5" width="134" height="84" y="533" clip-path="url(#clipPath2)" stroke="none"/>
    </g>
    <g text-rendering="geometricPrecision" stroke-miterlimit="1.45" shape-rendering="geometricPrecision" transform="matrix(1,0,0,1,121,-23)" stroke-linecap="butt">
      <rect fill="none" x="-105.5" width="134" height="84" y="533" clip-path="url(#clipPath2)"/>
      <text x="-79.5244" xml:space="preserve" y="557.6621" clip-path="url(#clipPath2)" font-family="sans-serif" stroke="none">git log --oneline</text>
      <text x="-93.8506" xml:space="preserve" y="572.3633" clip-path="url(#clipPath2)" font-family="sans-serif" stroke="none">Display each commit</text>
      <text x="-78.5283" xml:space="preserve" y="587.0645" clip-path="url(#clipPath2)" font-family="sans-serif" stroke="none">on a single line</text>
      <text x="-92.6875" xml:space="preserve" y="601.7656" clip-path="url(#clipPath2)" font-family="sans-serif" stroke="none">(--&gt; compact output)</text>
    </g>
    <g fill="rgb(255,204,0)" text-rendering="geometricPrecision" shape-rendering="geometricPrecision" transform="matrix(1,0,0,1,121,-23)" stroke="rgb(255,204,0)">
      <rect x="972.775" width="212.1333" height="78" y="225.25" clip-path="url(#clipPath2)" stroke="none"/>
    </g>
    <g text-rendering="geometricPrecision" stroke-miterlimit="1.45" shape-rendering="geometricPrecision" transform="matrix(1,0,0,1,121,-23)" stroke-linecap="butt">
      <rect fill="none" x="972.775" width="212.1333" height="78" y="225.25" clip-path="url(#clipPath2)"/>
      <text x="1025.8231" xml:space="preserve" y="246.9121" clip-path="url(#clipPath2)" font-family="sans-serif" stroke="none">git checkout commit</text>
      <text x="1010.6356" xml:space="preserve" y="261.6133" clip-path="url(#clipPath2)" font-family="sans-serif" stroke="none">--&gt; git checkout &lt;branch&gt;</text>
      <text x="995.7938" xml:space="preserve" y="276.3145" clip-path="url(#clipPath2)" font-family="sans-serif" stroke="none">to go back to the latest version.</text>
      <text x="1013.8934" xml:space="preserve" y="291.0156" clip-path="url(#clipPath2)" font-family="sans-serif" stroke="none">Main branch is "master".</text>
    </g>
    <g fill="rgb(255,204,0)" text-rendering="geometricPrecision" shape-rendering="geometricPrecision" transform="matrix(1,0,0,1,121,-23)" stroke="rgb(255,204,0)">
      <rect x="20.6833" width="172" height="66" y="278.05" clip-path="url(#clipPath2)" stroke="none"/>
    </g>
    <g text-rendering="geometricPrecision" stroke-miterlimit="1.45" shape-rendering="geometricPrecision" transform="matrix(1,0,0,1,121,-23)" stroke-linecap="butt">
      <rect fill="none" x="20.6833" width="172" height="66" y="278.05" clip-path="url(#clipPath2)"/>
      <text x="55.3347" xml:space="preserve" y="301.0627" clip-path="url(#clipPath2)" font-family="sans-serif" stroke="none">git revert &lt;commit&gt;</text>
      <text x="34.9675" xml:space="preserve" y="315.7639" clip-path="url(#clipPath2)" font-family="sans-serif" stroke="none">Undoes the changes made</text>
      <text x="43.991" xml:space="preserve" y="330.465" clip-path="url(#clipPath2)" font-family="sans-serif" stroke="none">by the specified commit</text>
      <path fill="none" d="M350 147 L350 344" clip-path="url(#clipPath2)"/>
      <path d="M350 352 L355 340 L350 343 L345 340 Z" clip-path="url(#clipPath2)" stroke="none"/>
      <path fill="none" d="M312.5102 529.0622 L259.0326 649.6865" clip-path="url(#clipPath2)"/>
      <path d="M255.7903 657 L265.2247 648.0563 L259.4379 648.7723 L256.0829 644.0033 Z" clip-path="url(#clipPath2)" stroke="none"/>
      <path fill="none" d="M322 721.1849 L400.3408 744.8137" clip-path="url(#clipPath2)"/>
      <path d="M408 747.1239 L397.955 738.8716 L399.3834 744.525 L395.0673 748.4456 Z" clip-path="url(#clipPath2)" stroke="none"/>
      <path fill="none" d="M583.7676 733 L692.2936 656.605" clip-path="url(#clipPath2)"/>
      <path d="M698.8353 652 L686.1446 654.8189 L691.4758 657.1806 L691.9008 662.9961 Z" clip-path="url(#clipPath2)" stroke="none"/>
      <path fill="none" d="M658 569.2833 L443.1459 482.2372" clip-path="url(#clipPath2)"/>
      <path d="M435.7313 479.2332 L444.9757 488.3733 L444.0727 482.6127 L448.7306 479.105 Z" clip-path="url(#clipPath2)" stroke="none"/>
      <path fill="none" d="M734 125.5 L545 125.5" clip-path="url(#clipPath2)"/>
      <path d="M537 125.5 L549 130.5 L546 125.5 L549 120.5 Z" clip-path="url(#clipPath2)" stroke="none"/>
      <path fill="none" d="M413.6641 377.3946 L484.9042 302.3037" clip-path="url(#clipPath2)"/>
      <path d="M490.4102 296.5 L478.5238 301.7643 L484.2159 303.0292 L485.7784 308.6469 Z" clip-path="url(#clipPath2)" stroke="none"/>
      <path fill="none" d="M621 212.2784 L733.8567 163.4329" clip-path="url(#clipPath2)"/>
      <path d="M741.1985 160.2552 L728.1998 160.433 L732.939 163.8301 L732.1718 169.6103 Z" clip-path="url(#clipPath2)" stroke="none"/>
      <path fill="none" d="M957.5196 560 L866.7589 582.8019" clip-path="url(#clipPath2)"/>
      <path d="M859 584.7512 L871.8566 586.6766 L867.7288 582.5583 L869.42 576.978 Z" clip-path="url(#clipPath2)" stroke="none"/>
      <path fill="none" d="M981 624.2711 L866.9836 616.9581" clip-path="url(#clipPath2)"/>
      <path d="M859 616.446 L870.6553 622.2039 L867.9816 617.0222 L871.2955 612.2244 Z" clip-path="url(#clipPath2)" stroke="none"/>
      <path fill="none" d="M517 863 L517 835" clip-path="url(#clipPath2)"/>
      <path d="M517 827 L512 839 L517 836 L522 839 Z" clip-path="url(#clipPath2)" stroke="none"/>
      <path fill="none" d="M682.2368 851.5 L632.9594 830.177" clip-path="url(#clipPath2)"/>
      <path d="M625.6172 827 L634.6448 836.3543 L633.8771 830.5742 L638.616 827.1767 Z" clip-path="url(#clipPath2)" stroke="none"/>
      <path fill="none" d="M354.0724 857 L410.3178 830.4183" clip-path="url(#clipPath2)"/>
      <path d="M417.5508 827 L404.5649 827.6069 L409.4137 830.8456 L408.8378 836.648 Z" clip-path="url(#clipPath2)" stroke="none"/>
      <path fill="none" d="M258.0682 454.7369 L221.4509 458.8144" clip-path="url(#clipPath2)"/>
      <path d="M213.5 459.6998 L225.9796 463.341 L222.4447 458.7038 L224.8729 453.4025 Z" clip-path="url(#clipPath2)" stroke="none"/>
      <path fill="none" d="M441.7022 432.3778 L566.294 415.9079" clip-path="url(#clipPath2)"/>
      <path d="M574.225 414.8595 L561.6733 411.4752 L565.3027 416.0389 L562.9838 421.389 Z" clip-path="url(#clipPath2)" stroke="none"/>
      <path fill="none" d="M25.3 533 L64.1894 507.3989" clip-path="url(#clipPath2)"/>
      <path d="M70.8714 503 L58.099 505.422 L63.3541 507.9487 L63.5976 513.7746 Z" clip-path="url(#clipPath2)" stroke="none"/>
      <path fill="none" d="M979.8846 303.25 L922.6248 325.8167" clip-path="url(#clipPath2)"/>
      <path d="M915.1819 328.75 L928.1795 329.0019 L923.5551 325.4501 L924.5129 319.6983 Z" clip-path="url(#clipPath2)" stroke="none"/>
      <path fill="none" d="M268.8974 400.0183 L173.8658 347.8971" clip-path="url(#clipPath2)"/>
      <path d="M166.8516 344.05 L174.9686 354.2045 L174.7426 348.3779 L179.7774 345.4367 Z" clip-path="url(#clipPath2)" stroke="none"/>
    </g>
  </g>
</svg>
