<?xml version="1.0" encoding="UTF-8"?><svg xmlns="http://www.w3.org/2000/svg" xmlns:xlink="http://www.w3.org/1999/xlink" fill-opacity="1" color-rendering="auto" color-interpolation="auto" text-rendering="auto" stroke="black" stroke-linecap="square" width="1262" stroke-miterlimit="10" shape-rendering="auto" stroke-opacity="1" fill="black" stroke-dasharray="none" font-weight="normal" stroke-width="1" height="587" font-family="'Dialog'" font-style="normal" stroke-linejoin="miter" font-size="12px" stroke-dashoffset="0" image-rendering="auto">
  <!--Generated by ySVG 2.5-->
  <defs id="genericDefs"/>
  <g>
    <defs id="defs1">
      <clipPath clipPathUnits="userSpaceOnUse" id="clipPath1">
        <path d="M0 0 L1262 0 L1262 587 L0 587 L0 0 Z"/>
      </clipPath>
      <clipPath clipPathUnits="userSpaceOnUse" id="clipPath2">
        <path d="M188 226 L1450 226 L1450 813 L188 813 L188 226 Z"/>
      </clipPath>
    </defs>
    <g fill="white" text-rendering="geometricPrecision" shape-rendering="geometricPrecision" transform="translate(-188,-226)" stroke="white">
      <rect x="188" width="1262" height="587" y="226" clip-path="url(#clipPath2)" stroke="none"/>
    </g>
    <g fill="rgb(255,204,0)" text-rendering="geometricPrecision" shape-rendering="geometricPrecision" transform="matrix(1,0,0,1,-188,-226)" stroke="rgb(255,204,0)">
      <rect x="203.5" width="229" height="183" y="580" clip-path="url(#clipPath2)" stroke="none"/>
    </g>
    <g text-rendering="geometricPrecision" stroke-miterlimit="1.45" shape-rendering="geometricPrecision" transform="matrix(1,0,0,1,-188,-226)" stroke-linecap="butt">
      <rect fill="none" x="203.5" width="229" height="183" y="580" clip-path="url(#clipPath2)"/>
      <text x="307.333" xml:space="preserve" y="676.2139" clip-path="url(#clipPath2)" font-family="sans-serif" stroke="none">GUI</text>
    </g>
    <g fill="rgb(255,204,0)" text-rendering="geometricPrecision" shape-rendering="geometricPrecision" transform="matrix(1,0,0,1,-188,-226)" stroke="rgb(255,204,0)">
      <rect x="1228" width="207" height="128" y="241" clip-path="url(#clipPath2)" stroke="none"/>
    </g>
    <g text-rendering="geometricPrecision" stroke-miterlimit="1.45" shape-rendering="geometricPrecision" transform="matrix(1,0,0,1,-188,-226)" stroke-linecap="butt">
      <rect fill="none" x="1228" width="207" height="128" y="241" clip-path="url(#clipPath2)"/>
      <text x="1295.4795" xml:space="preserve" y="309.7139" clip-path="url(#clipPath2)" font-family="sans-serif" stroke="none">Speicherlogik</text>
    </g>
    <g fill="rgb(255,204,0)" text-rendering="geometricPrecision" shape-rendering="geometricPrecision" transform="matrix(1,0,0,1,-188,-226)" stroke="rgb(255,204,0)">
      <rect x="981" width="183" height="146" y="407" clip-path="url(#clipPath2)" stroke="none"/>
    </g>
    <g text-rendering="geometricPrecision" stroke-miterlimit="1.45" shape-rendering="geometricPrecision" transform="matrix(1,0,0,1,-188,-226)" stroke-linecap="butt">
      <rect fill="none" x="981" width="183" height="146" y="407" clip-path="url(#clipPath2)"/>
      <text x="1045.4883" xml:space="preserve" y="484.7139" clip-path="url(#clipPath2)" font-family="sans-serif" stroke="none">Event-API</text>
    </g>
    <g fill="rgb(255,204,0)" text-rendering="geometricPrecision" shape-rendering="geometricPrecision" transform="matrix(1,0,0,1,-188,-226)" stroke="rgb(255,204,0)">
      <rect x="1231.5" width="200" height="276" y="439" clip-path="url(#clipPath2)" stroke="none"/>
    </g>
    <g text-rendering="geometricPrecision" stroke-miterlimit="1.45" shape-rendering="geometricPrecision" transform="matrix(1,0,0,1,-188,-226)" stroke-linecap="butt">
      <rect fill="none" x="1231.5" width="200" height="276" y="439" clip-path="url(#clipPath2)"/>
      <text x="1317.1562" xml:space="preserve" y="581.7139" clip-path="url(#clipPath2)" font-family="sans-serif" stroke="none">Logik</text>
    </g>
    <g fill="rgb(255,204,0)" text-rendering="geometricPrecision" shape-rendering="geometricPrecision" transform="matrix(1,0,0,1,-188,-226)" stroke="rgb(255,204,0)">
      <rect x="663" width="288" height="157" y="593" clip-path="url(#clipPath2)" stroke="none"/>
    </g>
    <g text-rendering="geometricPrecision" stroke-miterlimit="1.45" shape-rendering="geometricPrecision" transform="matrix(1,0,0,1,-188,-226)" stroke-linecap="butt">
      <rect fill="none" x="663" width="288" height="157" y="593" clip-path="url(#clipPath2)"/>
      <text x="790.6582" xml:space="preserve" y="676.2139" clip-path="url(#clipPath2)" font-family="sans-serif" stroke="none">Modul</text>
    </g>
    <g fill="rgb(255,204,0)" text-rendering="geometricPrecision" shape-rendering="geometricPrecision" transform="matrix(1,0,0,1,-188,-226)" stroke="rgb(255,204,0)">
      <rect x="1231.5" width="68" height="109" y="606" clip-path="url(#clipPath2)" stroke="none"/>
    </g>
    <g text-rendering="geometricPrecision" stroke-miterlimit="1.45" shape-rendering="geometricPrecision" transform="matrix(1,0,0,1,-188,-226)" stroke-linecap="butt">
      <rect fill="none" x="1231.5" width="68" height="109" y="606" clip-path="url(#clipPath2)"/>
      <text x="1237.1611" xml:space="preserve" y="665.2139" clip-path="url(#clipPath2)" font-family="sans-serif" stroke="none">Tick-Event</text>
    </g>
    <g fill="rgb(255,204,0)" text-rendering="geometricPrecision" shape-rendering="geometricPrecision" transform="matrix(1,0,0,1,-188,-226)" stroke="rgb(255,204,0)">
      <rect x="1299.5" width="68" height="109" y="606" clip-path="url(#clipPath2)" stroke="none"/>
    </g>
    <g text-rendering="geometricPrecision" stroke-miterlimit="1.45" shape-rendering="geometricPrecision" transform="matrix(1,0,0,1,-188,-226)" stroke-linecap="butt">
      <rect fill="none" x="1299.5" width="68" height="109" y="606" clip-path="url(#clipPath2)"/>
      <text x="1314.4951" xml:space="preserve" y="657.8633" clip-path="url(#clipPath2)" font-family="sans-serif" stroke="none">Felder-</text>
      <text x="1306.8135" xml:space="preserve" y="672.5645" clip-path="url(#clipPath2)" font-family="sans-serif" stroke="none">steuerung</text>
    </g>
    <g fill="rgb(255,204,0)" text-rendering="geometricPrecision" shape-rendering="geometricPrecision" transform="matrix(1,0,0,1,-188,-226)" stroke="rgb(255,204,0)">
      <rect x="1367.5" width="64" height="109" y="606" clip-path="url(#clipPath2)" stroke="none"/>
    </g>
    <g text-rendering="geometricPrecision" stroke-miterlimit="1.45" shape-rendering="geometricPrecision" transform="matrix(1,0,0,1,-188,-226)" stroke-linecap="butt">
      <rect fill="none" x="1367.5" width="64" height="109" y="606" clip-path="url(#clipPath2)"/>
      <text x="1396.1631" xml:space="preserve" y="665.2139" clip-path="url(#clipPath2)" font-family="sans-serif" stroke="none">8</text>
    </g>
    <g fill="rgb(255,204,0)" text-rendering="geometricPrecision" shape-rendering="geometricPrecision" transform="matrix(1,0,0,1,-188,-226)" stroke="rgb(255,204,0)">
      <rect x="831" width="120" height="62" y="593" clip-path="url(#clipPath2)" stroke="none"/>
    </g>
    <g text-rendering="geometricPrecision" stroke-miterlimit="1.45" shape-rendering="geometricPrecision" transform="matrix(1,0,0,1,-188,-226)" stroke-linecap="butt">
      <rect fill="none" x="831" width="120" height="62" y="593" clip-path="url(#clipPath2)"/>
      <text x="845.6338" xml:space="preserve" y="628.7139" clip-path="url(#clipPath2)" font-family="sans-serif" stroke="none">Methodenaufrufe</text>
    </g>
    <g fill="rgb(255,204,0)" text-rendering="geometricPrecision" shape-rendering="geometricPrecision" transform="matrix(1,0,0,1,-188,-226)" stroke="rgb(255,204,0)">
      <rect x="981" width="88" height="60" y="493" clip-path="url(#clipPath2)" stroke="none"/>
    </g>
    <g text-rendering="geometricPrecision" stroke-miterlimit="1.45" shape-rendering="geometricPrecision" transform="matrix(1,0,0,1,-188,-226)" stroke-linecap="butt">
      <rect fill="none" x="981" width="88" height="60" y="493" clip-path="url(#clipPath2)"/>
      <text x="991.9854" xml:space="preserve" y="527.7139" clip-path="url(#clipPath2)" font-family="sans-serif" stroke="none">Java-Events</text>
    </g>
    <g fill="rgb(255,204,0)" text-rendering="geometricPrecision" shape-rendering="geometricPrecision" transform="matrix(1,0,0,1,-188,-226)" stroke="rgb(255,204,0)">
      <rect x="1069" width="95" height="60" y="493" clip-path="url(#clipPath2)" stroke="none"/>
    </g>
    <g text-rendering="geometricPrecision" stroke-miterlimit="1.45" shape-rendering="geometricPrecision" transform="matrix(1,0,0,1,-188,-226)" stroke-linecap="butt">
      <rect fill="none" x="1069" width="95" height="60" y="493" clip-path="url(#clipPath2)"/>
      <text x="1075.4873" xml:space="preserve" y="527.7139" clip-path="url(#clipPath2)" font-family="sans-serif" stroke="none">Custom-Events</text>
    </g>
    <g fill="rgb(255,204,0)" text-rendering="geometricPrecision" shape-rendering="geometricPrecision" transform="matrix(1,0,0,1,-188,-226)" stroke="rgb(255,204,0)">
      <rect x="663" width="88" height="78" y="593" clip-path="url(#clipPath2)" stroke="none"/>
    </g>
    <g text-rendering="geometricPrecision" stroke-miterlimit="1.45" shape-rendering="geometricPrecision" transform="matrix(1,0,0,1,-188,-226)" stroke-linecap="butt">
      <rect fill="none" x="663" width="88" height="78" y="593" clip-path="url(#clipPath2)"/>
      <text x="667.3203" xml:space="preserve" y="629.3633" clip-path="url(#clipPath2)" font-family="sans-serif" stroke="none">GUI-Elemente:</text>
      <text x="678.3184" xml:space="preserve" y="644.0645" clip-path="url(#clipPath2)" font-family="sans-serif" stroke="none">Buttons, ...</text>
      <path fill="none" d="M1331.5 369 L1331.5 431" clip-path="url(#clipPath2)"/>
      <path d="M1331.5 439 L1336.5 427 L1331.5 430 L1326.5 427 Z" clip-path="url(#clipPath2)" stroke="none"/>
      <path fill="none" d="M1331.5 439 L1331.5 377" clip-path="url(#clipPath2)"/>
      <path d="M1331.5 369 L1326.5 381 L1331.5 378 L1336.5 381 Z" clip-path="url(#clipPath2)" stroke="none"/>
      <path fill="none" d="M663 671.5 L440.5 671.5" clip-path="url(#clipPath2)"/>
      <path d="M432.5 671.5 L444.5 676.5 L441.5 671.5 L444.5 666.5 Z" clip-path="url(#clipPath2)" stroke="none"/>
      <path fill="none" d="M1231.5 660.5 L1197 660.5 L1197 480 L1172 480" clip-path="url(#clipPath2)"/>
      <path d="M1164 480 L1176 485 L1173 480 L1176 475 Z" clip-path="url(#clipPath2)" stroke="none"/>
      <path fill="none" d="M951 624 L1100 624 L1100 798 L1333.5 798 L1333.5 723" clip-path="url(#clipPath2)"/>
      <path d="M1333.5 715 L1328.5 727 L1333.5 724 L1338.5 727 Z" clip-path="url(#clipPath2)" stroke="none"/>
      <path fill="none" d="M981 523 L891 523 L891 585" clip-path="url(#clipPath2)"/>
      <path d="M891 593 L896 581 L891 584 L886 581 Z" clip-path="url(#clipPath2)" stroke="none"/>
      <path fill="none" d="M1116.5 553 L1116.5 568 L920 568 L920 584.9902" clip-path="url(#clipPath2)"/>
      <path d="M920 592.9902 L925 580.9902 L920 583.9902 L915 580.9902 Z" clip-path="url(#clipPath2)" stroke="none"/>
    </g>
  </g>
</svg>
